<svg width="25" height="25" viewBox="0 0 25 25" fill="none" xmlns="http://www.w3.org/2000/svg">
<path fill-rule="evenodd" clip-rule="evenodd" d="M13.6575 6.01327L10.6297 9.04098L9.56903 7.98034L12.5969 4.95263C14.5471 3.00245 17.7091 3.00244 19.6594 4.95263C21.6097 6.90281 21.6097 10.0647 19.6594 12.0149L16.6316 15.0426L15.5709 13.982L18.5987 10.9542C19.9632 9.58983 19.9632 7.37768 18.5987 6.01327C17.2342 4.64886 15.022 4.64886 13.6575 6.01327ZM7.60032 9.94897L8.661 11.0096L5.63275 14.0377C4.26829 15.4021 4.26829 17.6143 5.63276 18.9787C6.99722 20.3431 9.20946 20.3431 10.5739 18.9787L13.6022 15.9506L14.6629 17.0112L11.6346 20.0393C9.68435 21.9895 6.52234 21.9895 4.57207 20.0393C2.62181 18.0892 2.62181 14.9273 4.57207 12.9771L7.60032 9.94897ZM15.0855 8.4653L8.08549 15.4653L9.14615 16.526L16.1461 9.52596L15.0855 8.4653Z" fill="#D3D4DB"/>
</svg>
