<svg width="25" height="25" viewBox="0 0 25 25" fill="none" xmlns="http://www.w3.org/2000/svg">
<path fill-rule="evenodd" clip-rule="evenodd" d="M16.1155 4.988C16.9179 5.11314 17.6622 5.49578 18.2327 6.08366C19.6628 7.55708 19.6452 9.90555 18.1933 11.3574L17.8962 11.6545L14.4592 15.0915L10.6186 18.9321C9.24072 20.3099 7.00456 20.3027 5.63567 18.9159C4.27553 17.5381 4.28703 15.3193 5.66138 13.9556L11.2931 8.36749C11.8308 7.83395 12.6987 7.83562 13.2343 8.37123C13.7715 8.90834 13.7715 9.77919 13.2343 10.3163L7.32727 16.2234L8.38793 17.284L14.295 11.377C15.4179 10.2541 15.4179 8.43342 14.2949 7.31053C13.1751 6.19078 11.3607 6.18729 10.2365 7.30272L4.60485 12.8908C2.64352 14.837 2.62711 18.0033 4.56816 19.9697C6.52169 21.9487 9.7129 21.9591 11.6792 19.9928L15.5199 16.1521L18.9569 12.7152L19.254 12.4181C21.2855 10.3866 21.31 7.1006 19.3092 5.03898C18.4563 4.16022 17.326 3.60921 16.1155 3.4751V4.988Z" fill="#D3D4DB"/>
</svg>
