<svg width="25" height="25" viewBox="0 0 25 25" fill="none" xmlns="http://www.w3.org/2000/svg">
<path fill-rule="evenodd" clip-rule="evenodd" d="M3.90283 3.49653C3.89038 3.49592 3.87784 3.49561 3.86523 3.49561C3.45102 3.49561 3.11523 3.83139 3.11523 4.24561V6.01321C3.11523 14.5628 10.0485 21.4933 18.5977 21.4933H20.3656C20.7798 21.4933 21.1156 21.1575 21.1156 20.7433C21.1156 20.7303 21.1153 20.7175 21.1146 20.7047V17.1353C21.1146 16.8253 20.9239 16.5472 20.6346 16.4356L16.3852 14.7959C16.1333 14.6987 15.8486 14.7444 15.6398 14.9156L11.6774 18.1634C9.4998 16.9208 7.68844 15.1098 6.44551 12.9326L9.69508 8.97128C9.86647 8.76236 9.91221 8.4774 9.81484 8.22533L8.17332 3.97626C8.06163 3.68716 7.78363 3.49653 7.47371 3.49653L3.90283 3.49653ZM5.71537 11.4576L8.25804 8.358L6.95943 4.99653L4.61523 4.99653V6.01321C4.61523 7.94447 5.007 9.78428 5.71537 11.4576ZM18.5977 19.9933C16.6664 19.9933 14.8264 19.6017 13.1529 18.8935L16.2528 16.3526L19.6146 17.6498V19.9933H18.5977Z" fill="#D3D4DB"/>
</svg>
