<svg width="25" height="25" viewBox="0 0 25 25" fill="none" xmlns="http://www.w3.org/2000/svg">
<path fill-rule="evenodd" clip-rule="evenodd" d="M7.11523 12.9849H6.76142L6.44489 13.143L3.61524 14.5566L3.61524 5.4956C3.61523 4.66718 4.28681 3.99561 5.11524 3.99561L15.1152 3.99561C15.9437 3.99561 16.6152 4.66718 16.6152 5.49561V11.4849C16.6152 12.3133 15.9437 12.9849 15.1152 12.9849L7.11523 12.9849ZM7.61524 14.4849L7.61523 17.4813C7.61524 18.3098 8.28681 18.9813 9.11524 18.9813L17.1152 18.9813H17.4925L17.8249 19.1598L20.6152 20.6583V11.4912C20.6152 10.6627 19.9437 9.99115 19.1152 9.99115H18.1152V11.4849C18.1152 13.1417 16.7721 14.4849 15.1152 14.4849L7.61524 14.4849ZM18.1152 8.49115V5.49561C18.1152 3.83875 16.7721 2.49561 15.1152 2.49561H5.11524C3.45838 2.49561 2.11523 3.83875 2.11523 5.4956L2.11524 15.3653C2.11524 16.1085 2.89725 16.592 3.56213 16.2599L6.11523 14.9844V17.4813C6.11523 19.1382 7.45838 20.4813 9.11523 20.4813L17.1152 20.4813L20.6421 22.3753C21.3083 22.7331 22.1152 22.2505 22.1152 21.4943V11.4912C22.1152 9.8343 20.7721 8.49115 19.1152 8.49115H18.1152Z" fill="#D3D4DB"/>
</svg>
