<svg width="25" height="25" viewBox="0 0 25 25" fill="none" xmlns="http://www.w3.org/2000/svg">
<path fill-rule="evenodd" clip-rule="evenodd" d="M8.11523 6.49561H4.11523C3.56295 6.49561 3.11523 6.94332 3.11523 7.49561V21.4956C3.11523 22.0479 3.56295 22.4956 4.11523 22.4956H15.1152C15.6675 22.4956 16.1152 22.0479 16.1152 21.4956V18.4956H20.1152C20.6675 18.4956 21.1152 18.0479 21.1152 17.4956V5.49561C21.1152 3.83875 19.7721 2.49561 18.1152 2.49561H9.11523C8.56295 2.49561 8.11523 2.94332 8.11523 3.49561V6.49561ZM9.61523 6.49561H13.1152C14.7721 6.49561 16.1152 7.83875 16.1152 9.49561V16.9956H19.6152V5.49561C19.6152 4.66718 18.9437 3.99561 18.1152 3.99561H9.61523V6.49561ZM4.61523 20.9956V7.99561H13.1152C13.9437 7.99561 14.6152 8.66718 14.6152 9.49561V20.9956H4.61523Z" fill="#D3D4DB"/>
</svg>
