<svg width="25" height="25" viewBox="0 0 25 25" fill="none" xmlns="http://www.w3.org/2000/svg">
<path fill-rule="evenodd" clip-rule="evenodd" d="M4.70812 16.9913C4.67667 16.9481 4.64561 16.9046 4.61495 16.8609C4.45828 16.6372 4.31211 16.4057 4.17717 16.1671C4.00252 15.8582 4.26009 15.4956 4.61495 15.4956C4.89554 15.4956 5.17252 15.4802 5.44511 15.4502C5.4607 15.4485 5.47627 15.4467 5.49183 15.4449C5.4919 15.4449 5.49196 15.4449 5.49202 15.4449C9.2209 15.0105 12.1149 11.841 12.1149 7.99561C12.1149 6.66935 11.7707 5.42349 11.1667 4.34252C10.9617 3.97568 11.1787 3.49561 11.5989 3.49561C16.3022 3.49561 20.1149 7.30119 20.1149 11.9956C20.1149 16.69 16.3022 20.4956 11.5989 20.4956C8.76778 20.4956 6.25936 19.1167 4.71094 16.9951C4.71 16.9938 4.70906 16.9925 4.70812 16.9913ZM6.49498 16.7989C7.77501 18.1525 9.58845 18.9956 11.5989 18.9956C15.4764 18.9956 18.6149 15.8589 18.6149 11.9956C18.6149 8.66767 16.286 5.87894 13.162 5.16991C13.456 6.05951 13.6149 7.00986 13.6149 7.99561C13.6149 12.3214 10.5631 15.9344 6.49498 16.7989Z" fill="#D3D4DB"/>
</svg>
