<svg width="25" height="25" viewBox="0 0 25 25" fill="none" xmlns="http://www.w3.org/2000/svg">
<path fill-rule="evenodd" clip-rule="evenodd" d="M13.6115 21.3739V17.4956H15.1115L18.1139 17.4956C19.9051 17.4956 21.2972 15.9361 21.0947 14.1564L20.6138 9.93033C20.3263 7.40393 18.1886 5.4956 15.6459 5.4956L8.61374 5.49561L8.61331 5.4956H7.11331H5.11523C4.01066 5.4956 3.11523 6.39103 3.11523 7.4956V15.4956C3.11523 16.6002 4.01066 17.4956 5.11523 17.4956H7.11331H7.43766L9.55194 22.2379C9.893 23.0029 10.6522 23.4956 11.4898 23.4956C12.6615 23.4956 13.6115 22.5457 13.6115 21.3739ZM15.6459 6.9956L8.61374 6.99561L8.61374 16.4498L10.9219 21.6271C11.0219 21.8512 11.2443 21.9956 11.4898 21.9956C11.8331 21.9956 12.1115 21.7173 12.1115 21.3739V17.4956C12.1115 16.6672 12.783 15.9956 13.6115 15.9956L18.1139 15.9956C19.0095 15.9956 19.7055 15.2159 19.6043 14.326L19.1234 10.0999C18.9222 8.33143 17.4258 6.9956 15.6459 6.9956ZM5.11523 15.9956H7.11331V6.9956H5.11523C4.83909 6.9956 4.61523 7.21946 4.61523 7.4956V15.4956C4.61523 15.7717 4.83909 15.9956 5.11523 15.9956Z" fill="#D3D4DB"/>
</svg>
