<svg width="25" height="25" viewBox="0 0 25 25" fill="none" xmlns="http://www.w3.org/2000/svg">
<path fill-rule="evenodd" clip-rule="evenodd" d="M18.3559 6.36562L17.4009 5.32363C17.0318 4.92083 16.4076 4.8889 15.9993 5.25194L14.4365 6.64131L16.7347 9.17837L18.2866 7.78549C18.7007 7.41388 18.7318 6.77578 18.3559 6.36562ZM5.61523 14.4838L13.3154 7.638L15.6183 10.1803L8.02198 16.9981H5.61523V14.4838ZM19.4617 5.35214L18.5068 4.31016C17.5838 3.30313 16.0235 3.22332 15.0026 4.13091L4.4508 13.512C4.23736 13.7017 4.11523 13.9737 4.11523 14.2593V17.4981C4.11523 18.0504 4.56295 18.4981 5.11523 18.4981H8.21345C8.46002 18.4981 8.69789 18.407 8.88139 18.2423L19.2885 8.90182C20.3237 7.97279 20.4015 6.37754 19.4617 5.35214ZM20.1152 19.9955H4.11523V21.4955H20.1152V19.9955Z" fill="#D3D4DB"/>
</svg>
