<svg width="25" height="25" viewBox="0 0 25 25" fill="none" xmlns="http://www.w3.org/2000/svg">
<path fill-rule="evenodd" clip-rule="evenodd" d="M12.1152 16.8033L12.8097 17.166L17.6152 19.6761V5.49561C17.6152 5.21946 17.3914 4.99561 17.1152 4.99561H7.11523C6.83909 4.99561 6.61523 5.21946 6.61523 5.49561V19.6761L11.4208 17.166L12.1152 16.8033ZM12.1152 18.4956L17.6523 21.3877C18.318 21.7355 19.1152 21.2525 19.1152 20.5013V5.49561C19.1152 4.39104 18.2198 3.49561 17.1152 3.49561H7.11523C6.01066 3.49561 5.11523 4.39104 5.11523 5.49561V20.5013C5.11523 21.2525 5.91242 21.7355 6.57821 21.3877L12.1152 18.4956Z" fill="#D3D4DB"/>
</svg>
