<svg width="25" height="25" viewBox="0 0 25 25" fill="none" xmlns="http://www.w3.org/2000/svg">
<path fill-rule="evenodd" clip-rule="evenodd" d="M16.1152 4.99561H8.11523C7.28681 4.99561 6.61523 5.66718 6.61523 6.49561V18.4956C6.61523 19.324 7.28681 19.9956 8.11523 19.9956H16.1152C16.9437 19.9956 17.6152 19.324 17.6152 18.4956V6.49561C17.6152 5.66718 16.9437 4.99561 16.1152 4.99561ZM8.11523 3.49561C6.45838 3.49561 5.11523 4.83875 5.11523 6.49561V18.4956C5.11523 20.1525 6.45838 21.4956 8.11523 21.4956H16.1152C17.7721 21.4956 19.1152 20.1525 19.1152 18.4956V6.49561C19.1152 4.83875 17.7721 3.49561 16.1152 3.49561H8.11523ZM21.8663 18.4737C22.0022 18.4984 22.1152 18.3837 22.1152 18.2456V6.74561C22.1152 6.60753 22.0022 6.49284 21.8663 6.51752C21.0323 6.66907 20.6152 7.58234 20.6152 8.49563V16.4956C20.6152 17.4089 21.0323 18.3221 21.8663 18.4737ZM2.11523 18.2456C2.11523 18.3837 2.2283 18.4984 2.36415 18.4737C3.19821 18.3221 3.61523 17.4089 3.61523 16.4956V8.49563C3.61523 7.58234 3.19821 6.66907 2.36415 6.51752C2.2283 6.49284 2.11523 6.60753 2.11523 6.74561V18.2456Z" fill="#D3D4DB"/>
</svg>
