<svg width="25" height="25" viewBox="0 0 25 25" fill="none" xmlns="http://www.w3.org/2000/svg">
<path fill-rule="evenodd" clip-rule="evenodd" d="M4.61523 8.49561L4.61523 16.4956C4.61523 17.324 5.28681 17.9956 6.11523 17.9956L18.1152 17.9956C18.9437 17.9956 19.6152 17.324 19.6152 16.4956L19.6152 8.49561C19.6152 7.66718 18.9437 6.99561 18.1152 6.99561L6.11523 6.99561C5.28681 6.99561 4.61523 7.66718 4.61523 8.49561ZM3.11523 16.4956C3.11523 18.1525 4.45838 19.4956 6.11523 19.4956L18.1152 19.4956C19.7721 19.4956 21.1152 18.1525 21.1152 16.4956L21.1152 8.49561C21.1152 6.83875 19.7721 5.49561 18.1152 5.49561L6.11523 5.49561C4.45838 5.49561 3.11523 6.83875 3.11523 8.49561L3.11523 16.4956ZM18.0933 2.74452C18.118 2.60868 18.0033 2.49561 17.8652 2.49561L6.36523 2.49561C6.22716 2.49561 6.11247 2.60868 6.13715 2.74452C6.2887 3.57858 7.20197 3.99561 8.11526 3.99561L16.1153 3.99561C17.0285 3.99561 17.9418 3.57858 18.0933 2.74452ZM17.8652 22.4956C18.0033 22.4956 18.118 22.3825 18.0933 22.2467C17.9418 21.4126 17.0285 20.9956 16.1153 20.9956L8.11525 20.9956C7.20197 20.9956 6.2887 21.4126 6.13715 22.2467C6.11247 22.3825 6.22716 22.4956 6.36523 22.4956L17.8652 22.4956Z" fill="#D3D4DB"/>
</svg>
