<svg width="25" height="25" viewBox="0 0 25 25" fill="none" xmlns="http://www.w3.org/2000/svg">
<path fill-rule="evenodd" clip-rule="evenodd" d="M3.11523 9.47392C3.11523 6.74215 5.28017 4.49561 7.98976 4.49561C9.40494 4.49561 10.632 5.24416 11.4828 6.26464C11.7198 6.54891 11.932 6.85917 12.115 7.18823C12.2977 6.85925 12.5098 6.54905 12.7466 6.26482C13.5969 5.24424 14.8236 4.49561 16.2388 4.49561C18.9484 4.49561 21.1133 6.74215 21.1133 9.47392C21.1133 11.8962 19.6046 14.0441 17.8805 15.8115C16.5587 17.1665 15.0061 18.3976 13.7099 19.4253C13.3069 19.7449 12.9287 20.0448 12.5899 20.3226C12.3134 20.5494 11.9152 20.5494 11.6387 20.3226C11.2999 20.0448 10.9217 19.7449 10.5186 19.4253C9.22251 18.3976 7.66984 17.1665 6.3481 15.8115C4.624 14.0441 3.11523 11.8962 3.11523 9.47392ZM12.8652 9.99561H11.3652C11.3652 9.01656 10.9736 7.99633 10.3306 7.22515C9.68813 6.45444 8.85249 5.99561 7.98976 5.99561C6.14352 5.99561 4.61523 7.53522 4.61523 9.47392C4.61523 11.2799 5.75795 13.0584 7.42185 14.7641C8.66963 16.0433 10.1104 17.1861 11.3944 18.2045C11.641 18.4 11.8818 18.591 12.1143 18.7775C12.3468 18.591 12.5876 18.4 12.8342 18.2045C14.1181 17.1861 15.5589 16.0433 16.8067 14.7641C18.4706 13.0584 19.6133 11.2799 19.6133 9.47392C19.6133 7.53522 18.0851 5.99561 16.2388 5.99561C15.3762 5.99561 14.5411 6.45436 13.899 7.22497C13.2566 7.99607 12.8652 9.01635 12.8652 9.99561Z" fill="#D3D4DB"/>
</svg>
