<svg width="25" height="25" viewBox="0 0 25 25" fill="none" xmlns="http://www.w3.org/2000/svg">
<path d="M3.11523 9.47392C3.11523 6.74215 5.28017 4.49561 7.98976 4.49561C9.40494 4.49561 10.632 5.24416 11.4828 6.26464C11.7198 6.54891 11.932 6.85917 12.115 7.18823C12.2977 6.85925 12.5098 6.54905 12.7466 6.26482C13.5969 5.24424 14.8236 4.49561 16.2388 4.49561C18.9484 4.49561 21.1133 6.74215 21.1133 9.47392C21.1133 11.8962 19.6046 14.0441 17.8805 15.8115C16.5587 17.1665 15.0061 18.3976 13.7099 19.4253L13.7098 19.4254C13.3068 19.7449 12.9286 20.0448 12.5899 20.3226C12.3134 20.5494 11.9152 20.5494 11.6387 20.3226C11.2999 20.0448 10.9217 19.7449 10.5186 19.4253L10.5186 19.4253C9.2225 18.3976 7.66984 17.1665 6.3481 15.8115C4.624 14.0441 3.11523 11.8962 3.11523 9.47392Z" fill="#D3D4DB"/>
</svg>
