<svg width="25" height="25" viewBox="0 0 25 25" fill="none" xmlns="http://www.w3.org/2000/svg">
<path fill-rule="evenodd" clip-rule="evenodd" d="M19.1152 5.99561H5.11523C4.28681 5.99561 3.61523 6.66718 3.61523 7.49561V12.8055L7.11696 9.69286C7.39241 9.44802 7.80493 9.43958 8.09016 9.67295L13.1354 13.8008L14.6652 12.6534C14.9433 12.4448 15.3283 12.4547 15.5954 12.6773L20.6152 16.8605V7.49561C20.6152 6.66718 19.9437 5.99561 19.1152 5.99561ZM20.2337 18.4951L15.0907 14.2093L13.5652 15.3534C13.2892 15.5605 12.9074 15.5524 12.6403 15.3339L7.6354 11.239L3.61523 14.8124V17.4956C3.61523 18.324 4.28681 18.9956 5.11523 18.9956H19.1152C19.5597 18.9956 19.9591 18.8023 20.2337 18.4951ZM5.11523 4.49561C3.45838 4.49561 2.11523 5.83875 2.11523 7.49561V17.4956C2.11523 19.1525 3.45838 20.4956 5.11523 20.4956H19.1152C20.7721 20.4956 22.1152 19.1525 22.1152 17.4956V7.49561C22.1152 5.83875 20.7721 4.49561 19.1152 4.49561H5.11523ZM14.1152 8.99561C14.1152 8.16718 14.7868 7.49561 15.6152 7.49561C16.4437 7.49561 17.1152 8.16718 17.1152 8.99561C17.1152 9.82403 16.4437 10.4956 15.6152 10.4956C14.7868 10.4956 14.1152 9.82403 14.1152 8.99561Z" fill="#D3D4DB"/>
</svg>
