<svg width="25" height="25" viewBox="0 0 25 25" fill="none" xmlns="http://www.w3.org/2000/svg">
<path fill-rule="evenodd" clip-rule="evenodd" d="M13.6115 3.6173V7.49561H15.1115L18.1139 7.49561C19.9051 7.49561 21.2972 9.05506 21.0947 10.8348L20.6138 15.0609C20.3263 17.5873 18.1886 19.4956 15.6459 19.4956L8.61374 19.4956L8.61331 19.4956H7.11331H5.11523C4.01066 19.4956 3.11523 18.6002 3.11523 17.4956V9.49561C3.11523 8.39104 4.01066 7.49561 5.11523 7.49561H7.11331H7.43766L9.55194 2.75335C9.893 1.98836 10.6522 1.49561 11.4898 1.49561C12.6615 1.4956 13.6115 2.44552 13.6115 3.6173ZM15.6459 17.9956L8.61374 17.9956L8.61374 8.5414L10.9219 3.36415C11.0219 3.13999 11.2443 2.99561 11.4898 2.99561C11.8331 2.99561 12.1115 3.27395 12.1115 3.6173V7.49561C12.1115 8.32403 12.783 8.99561 13.6115 8.99561L18.1139 8.99561C19.0095 8.99561 19.7055 9.77534 19.6043 10.6652L19.1234 14.8913C18.9222 16.6598 17.4258 17.9956 15.6459 17.9956ZM5.11523 8.99561H7.11331V17.9956H5.11523C4.83909 17.9956 4.61523 17.7718 4.61523 17.4956V9.49561C4.61523 9.21947 4.83909 8.99561 5.11523 8.99561Z" fill="#D3D4DB"/>
</svg>
