<svg width="25" height="25" viewBox="0 0 25 25" fill="none" xmlns="http://www.w3.org/2000/svg">
<path fill-rule="evenodd" clip-rule="evenodd" d="M7.11523 5.99561H11.1152V4.49561H7.11523C5.45838 4.49561 4.11523 5.83875 4.11523 7.49561V17.4956C4.11523 19.1525 5.45838 20.4956 7.11523 20.4956H17.1152C18.7721 20.4956 20.1152 19.1525 20.1152 17.4956V13.4956H18.6152V17.4956C18.6152 18.324 17.9437 18.9956 17.1152 18.9956H7.11523C6.28681 18.9956 5.61523 18.324 5.61523 17.4956V7.49561C5.61523 6.66718 6.28681 5.99561 7.11523 5.99561ZM15.1152 5.9956L17.5546 5.99561L9.0849 14.4653L10.1456 15.5259L18.6152 7.05633V9.49561H20.1152V5.24561C20.1152 4.8314 19.7795 4.49561 19.3652 4.49561L15.1152 4.49561L15.1152 5.9956Z" fill="#D3D4DB"/>
</svg>
