<svg width="25" height="25" viewBox="0 0 25 25" fill="none" xmlns="http://www.w3.org/2000/svg">
<path fill-rule="evenodd" clip-rule="evenodd" d="M3.61523 7.96786V17.4956C3.61523 18.324 4.28681 18.9956 5.11523 18.9956H19.1152C19.9437 18.9956 20.6152 18.324 20.6152 17.4956V7.96786L12.621 15.2682C12.3345 15.5297 11.8959 15.5297 11.6095 15.2682L3.61523 7.96786ZM20.5505 5.99561H3.67993L12.1152 13.6987L20.5505 5.99561ZM2.11523 5.49561C2.11523 4.94332 2.56295 4.49561 3.11523 4.49561H21.1152C21.6675 4.49561 22.1152 4.94332 22.1152 5.49561V17.4956C22.1152 19.1525 20.7721 20.4956 19.1152 20.4956H5.11523C3.45838 20.4956 2.11523 19.1525 2.11523 17.4956V5.49561Z" fill="#D3D4DB"/>
</svg>
