<svg width="25" height="25" viewBox="0 0 25 25" fill="none" xmlns="http://www.w3.org/2000/svg">
<path fill-rule="evenodd" clip-rule="evenodd" d="M3.61523 7.96786V17.4956C3.61523 18.324 4.28681 18.9956 5.11523 18.9956H19.1152C19.9437 18.9956 20.6152 18.324 20.6152 17.4956V5.99561H3.67993L12.1224 13.7052L14.1174 11.9347L15.1131 13.0565L12.6131 15.2753C12.326 15.5301 11.8929 15.527 11.6095 15.2682L3.61523 7.96786ZM2.11523 5.49561C2.11523 4.94332 2.56295 4.49561 3.11523 4.49561H21.1152C21.6675 4.49561 22.1152 4.94332 22.1152 5.49561V17.4956C22.1152 19.1525 20.7721 20.4956 19.1152 20.4956H5.11523C3.45838 20.4956 2.11523 19.1525 2.11523 17.4956V5.49561Z" fill="#D3D4DB"/>
<path d="M24.1152 12.4956C24.1152 14.7047 22.3244 16.4956 20.1152 16.4956C17.9061 16.4956 16.1152 14.7047 16.1152 12.4956C16.1152 10.2865 17.9061 8.49561 20.1152 8.49561C22.3244 8.49561 24.1152 10.2865 24.1152 12.4956Z" fill="#FF4F12"/>
</svg>
