<svg width="25" height="25" viewBox="0 0 25 25" fill="none" xmlns="http://www.w3.org/2000/svg">
<path fill-rule="evenodd" clip-rule="evenodd" d="M14.6152 11.4956V7.49561C14.6152 6.11489 13.4959 4.99561 12.1152 4.99561C10.7345 4.99561 9.61523 6.11489 9.61523 7.49561V11.4956C9.61523 12.8763 10.7345 13.9956 12.1152 13.9956C13.4959 13.9956 14.6152 12.8763 14.6152 11.4956ZM12.1152 3.49561C9.90609 3.49561 8.11523 5.28647 8.11523 7.49561V11.4956C8.11523 13.7047 9.90609 15.4956 12.1152 15.4956C14.3244 15.4956 16.1152 13.7047 16.1152 11.4956V7.49561C16.1152 5.28647 14.3244 3.49561 12.1152 3.49561ZM8.20202 15.8716C7.02707 15.1379 6.07713 14.0881 5.46008 12.839L4.11523 13.5034C4.85524 15.0014 5.99534 16.262 7.40754 17.1439C8.6092 17.8942 9.96741 18.345 11.3695 18.4639V19.9956H9.11523V21.4956H15.1152V19.9956H12.8695V18.4639C14.2651 18.3456 15.6174 17.8984 16.8152 17.1541C18.2292 16.2753 19.372 15.0171 20.1152 13.5207L18.7718 12.8535C18.1521 14.1012 17.1999 15.1489 16.0234 15.88C14.847 16.6111 13.4924 16.9971 12.1115 16.9956C10.7307 16.9941 9.37688 16.6052 8.20202 15.8716Z" fill="#D3D4DB"/>
</svg>
