<svg width="25" height="25" viewBox="0 0 25 25" fill="none" xmlns="http://www.w3.org/2000/svg">
<path fill-rule="evenodd" clip-rule="evenodd" d="M17.494 16.9956L16.8836 9.14667C16.7013 6.8038 14.7471 4.99561 12.3971 4.99561H11.8334C9.48341 4.99561 7.52913 6.80379 7.3469 9.14666L6.73643 16.9956L17.494 16.9956ZM5.85142 9.03034L5.2319 16.9956L4.11523 16.9956V18.4956L5.11523 18.4956H6.61976H8.24125C8.68529 20.2208 10.2514 21.4956 12.1152 21.4956C13.9791 21.4956 15.5452 20.2208 15.9892 18.4956H17.6107H19.1152H20.1152V16.9956H18.9986L18.379 9.03035C18.1361 5.90653 15.5304 3.49561 12.3971 3.49561H11.8334C8.7001 3.49561 6.09439 5.90652 5.85142 9.03034ZM14.4072 18.4956L9.82326 18.4956C10.209 19.3786 11.0901 19.9956 12.1152 19.9956C13.1404 19.9956 14.0214 19.3786 14.4072 18.4956Z" fill="#D3D4DB"/>
</svg>
