<svg width="25" height="25" viewBox="0 0 25 25" fill="none" xmlns="http://www.w3.org/2000/svg">
<path fill-rule="evenodd" clip-rule="evenodd" d="M16.3922 18.3795L6.02601 15.5622L8.6622 7.99624C9.43551 5.77683 11.785 4.53881 14.0543 5.155L14.5749 5.29634C16.8442 5.91253 18.2681 8.17514 17.8427 10.489L16.3922 18.3795ZM4.07708 16.5946L4.07952 16.5876L3.11523 16.3255L3.49836 14.8753L4.57426 15.1677L7.24828 7.49316C8.27935 4.53394 11.412 2.88325 14.4378 3.70483L14.9583 3.84618C17.9841 4.66776 19.8826 7.68457 19.3154 10.7698L17.844 18.774L18.9192 19.0662L18.536 20.5165L17.5719 20.2544L17.5711 20.2586L16.1192 19.8644L14.5581 19.4405C13.6846 21.0095 11.8458 21.8448 10.0493 21.357C8.25273 20.8692 7.07245 19.2141 7.09009 17.4127L5.52893 16.9888L4.07708 16.5946ZM8.61342 17.8264C8.75396 18.8041 9.45216 19.6406 10.4327 19.9068C11.4133 20.1731 12.4306 19.8024 13.0348 19.0269L8.61342 17.8264Z" fill="#D3D4DB"/>
<path d="M22.1152 12.4956C22.1152 14.7047 20.3244 16.4956 18.1152 16.4956C15.9061 16.4956 14.1152 14.7047 14.1152 12.4956C14.1152 10.2865 15.9061 8.49561 18.1152 8.49561C20.3244 8.49561 22.1152 10.2865 22.1152 12.4956Z" fill="#FF4F12"/>
</svg>
