<svg width="25" height="25" viewBox="0 0 25 25" fill="none" xmlns="http://www.w3.org/2000/svg">
<path fill-rule="evenodd" clip-rule="evenodd" d="M15.7437 7.61672C16.0183 7.86079 16.3729 7.99561 16.7402 7.99561H20.1152C20.3914 7.99561 20.6152 8.21946 20.6152 8.49561V17.4956C20.6152 18.324 19.9437 18.9956 19.1152 18.9956H5.11523C4.28681 18.9956 3.61523 18.324 3.61523 17.4956V8.49561C3.61523 8.21946 3.83909 7.99561 4.11523 7.99561H7.49023C7.85761 7.99561 8.2122 7.86079 8.48678 7.61672L9.88429 6.37449C10.1589 6.13042 10.5135 5.99561 10.8808 5.99561H13.3496C13.717 5.99561 14.0716 6.13042 14.3462 6.37449L15.7437 7.61672ZM4.11523 6.49561H7.49023L8.88774 5.25338C9.43689 4.76524 10.1461 4.49561 10.8808 4.49561H13.3496C14.0844 4.49561 14.7936 4.76524 15.3427 5.25338L16.7402 6.49561H20.1152C21.2198 6.49561 22.1152 7.39104 22.1152 8.49561V17.4956C22.1152 19.1525 20.7721 20.4956 19.1152 20.4956H5.11523C3.45838 20.4956 2.11523 19.1525 2.11523 17.4956V8.49561C2.11523 7.39104 3.01066 6.49561 4.11523 6.49561ZM12.1152 10.9956C13.2198 10.9956 14.1152 11.891 14.1152 12.9956C14.1152 14.1002 13.2198 14.9956 12.1152 14.9956C11.0107 14.9956 10.1152 14.1002 10.1152 12.9956C10.1152 11.891 11.0107 10.9956 12.1152 10.9956ZM12.1152 9.49561C14.0482 9.49561 15.6152 11.0626 15.6152 12.9956C15.6152 14.9286 14.0482 16.4956 12.1152 16.4956C10.1822 16.4956 8.61523 14.9286 8.61523 12.9956C8.61523 11.0626 10.1822 9.49561 12.1152 9.49561Z" fill="#D3D4DB"/>
</svg>
