<svg width="25" height="25" viewBox="0 0 25 25" fill="none" xmlns="http://www.w3.org/2000/svg">
<path fill-rule="evenodd" clip-rule="evenodd" d="M10.8311 3.49561C9.47376 3.49561 8.31945 4.48591 8.11306 5.82745L8.01026 6.49561H4.11523C3.01066 6.49561 2.11523 7.39104 2.11523 8.49561V18.4956C2.11523 20.1525 3.45838 21.4956 5.11523 21.4956H19.1152C20.7721 21.4956 22.1152 20.1525 22.1152 18.4956V8.49561C22.1152 7.39104 21.2198 6.49561 20.1152 6.49561H16.2202L16.1174 5.82745C15.911 4.48591 14.7567 3.49561 13.3994 3.49561H10.8311ZM14.7026 6.49561L14.6349 6.05553C14.5411 5.44574 14.0164 4.99561 13.3994 4.99561H10.8311C10.2141 4.99561 9.68943 5.44574 9.59561 6.05553L9.52791 6.49561H14.7026ZM4.11523 7.99561H20.1152C20.3914 7.99561 20.6152 8.21946 20.6152 8.49561V11.4253C18.9608 12.4774 17.0765 13.1796 15.1152 13.5318V13.4956C15.1152 12.391 14.2198 11.4956 13.1152 11.4956H11.1152C10.0107 11.4956 9.11523 12.391 9.11523 13.4956V13.5318C7.15395 13.1796 5.26963 12.4774 3.61523 11.4253V8.49561C3.61523 8.21946 3.83909 7.99561 4.11523 7.99561ZM9.11523 15.0538C7.18199 14.736 5.30924 14.1078 3.61523 13.1692V18.4956C3.61523 19.324 4.28681 19.9956 5.11523 19.9956H19.1152C19.9437 19.9956 20.6152 19.324 20.6152 18.4956V13.1692C18.9212 14.1078 17.0485 14.736 15.1152 15.0538V15.4956C15.1152 16.6002 14.2198 17.4956 13.1152 17.4956H11.1152C10.0107 17.4956 9.11523 16.6002 9.11523 15.4956V15.0538ZM11.1152 12.9956H13.1152C13.3914 12.9956 13.6152 13.2195 13.6152 13.4956V15.4956C13.6152 15.7717 13.3914 15.9956 13.1152 15.9956H11.1152C10.8391 15.9956 10.6152 15.7717 10.6152 15.4956V13.4956C10.6152 13.2195 10.8391 12.9956 11.1152 12.9956Z" fill="#D3D4DB"/>
</svg>
