<svg width="25" height="25" viewBox="0 0 25 25" fill="none" xmlns="http://www.w3.org/2000/svg">
<path fill-rule="evenodd" clip-rule="evenodd" d="M8.11523 4.99561H16.1152C16.3914 4.99561 16.6152 5.21946 16.6152 5.49561V7.49561H7.61523V5.49561C7.61523 5.21946 7.83909 4.99561 8.11523 4.99561ZM18.1152 5.49561V7.49561H19.1152C20.7721 7.49561 22.1152 8.83875 22.1152 10.4956V16.4956C22.1152 18.1525 20.7721 19.4956 19.1152 19.4956H18.1152C18.1152 20.6002 17.2198 21.4956 16.1152 21.4956H8.11523C7.01066 21.4956 6.11523 20.6002 6.11523 19.4956H5.11523C3.45838 19.4956 2.11523 18.1525 2.11523 16.4956V10.4956C2.11523 8.83875 3.45838 7.49561 5.11523 7.49561H6.11523V5.49561C6.11523 4.39104 7.01066 3.49561 8.11523 3.49561H16.1152C17.2198 3.49561 18.1152 4.39104 18.1152 5.49561ZM6.11523 17.9956V13.4956C6.11523 12.9433 6.56295 12.4956 7.11523 12.4956H17.1152C17.6675 12.4956 18.1152 12.9433 18.1152 13.4956V17.9956H19.1152C19.9437 17.9956 20.6152 17.324 20.6152 16.4956V10.4956C20.6152 9.66718 19.9437 8.99561 19.1152 8.99561H5.11523C4.28681 8.99561 3.61523 9.66718 3.61523 10.4956V16.4956C3.61523 17.324 4.28681 17.9956 5.11523 17.9956H6.11523ZM8.11523 19.9956H16.1152C16.3914 19.9956 16.6152 19.7717 16.6152 19.4956V13.9956H7.61523V19.4956C7.61523 19.7717 7.83909 19.9956 8.11523 19.9956Z" fill="#D3D4DB"/>
</svg>
