<svg width="25" height="25" viewBox="0 0 25 25" fill="none" xmlns="http://www.w3.org/2000/svg">
<path fill-rule="evenodd" clip-rule="evenodd" d="M14.2569 9.47482L13.9083 8.69987L12.1142 4.71192L10.3203 8.69985L9.97169 9.4748L9.12778 9.57419L4.7616 10.0884L8.07401 12.8422L8.79427 13.441L8.57238 14.351L7.55923 18.506L11.38 16.3612L12.1142 15.9491L12.8485 16.3612L16.6702 18.5065L15.6577 14.3507L15.436 13.4409L16.1561 12.8422L19.4685 10.0885L15.1008 9.57419L14.2569 9.47482ZM8.95234 8.08448L3.42913 8.73494C2.55646 8.83771 2.23111 9.93529 2.9068 10.497L7.11508 13.9956L5.82945 19.2682C5.62234 20.1176 6.52813 20.805 7.29049 20.3771L12.1142 17.6693L16.9386 20.3774C17.7009 20.8053 18.6066 20.118 18.3997 19.2687L17.1151 13.9956L21.3233 10.4971C21.999 9.93533 21.6736 8.83774 20.8009 8.73498L15.2762 8.08448L13.0262 3.0829C12.6725 2.29658 11.556 2.29659 11.2023 3.08292L8.95234 8.08448Z" fill="#D3D4DB"/>
</svg>
