<svg width="25" height="25" viewBox="0 0 25 25" fill="none" xmlns="http://www.w3.org/2000/svg">
<path fill-rule="evenodd" clip-rule="evenodd" d="M19.6152 3.49365H15.1152V4.99365L16.6153 4.99365V19.9999H15.1152V21.4999H19.6152V19.9999H18.1153V4.99365L19.6152 4.99365V3.49365ZM5.83165 17.4958H4.11523L8.32419 7.49579H9.90628L14.1152 17.4958H12.3988L11.2645 14.7244H6.96598L5.83165 17.4958ZM8.78688 10.1958L7.50329 13.3529H10.7272L9.44359 10.1958C9.43052 10.1582 9.40853 10.0976 9.38061 10.0205C9.31292 9.83361 9.21034 9.55041 9.11523 9.26722C9.02013 9.55042 8.91755 9.83361 8.84985 10.0205C8.82193 10.0976 8.79995 10.1582 8.78688 10.1958Z" fill="#D3D4DB"/>
</svg>
