<svg width="25" height="25" viewBox="0 0 25 25" fill="none" xmlns="http://www.w3.org/2000/svg">
<path fill-rule="evenodd" clip-rule="evenodd" d="M12.8598 1.49561L12.8598 5.49561L11.3598 5.49561L11.3598 1.49561H12.8598ZM21.1024 4.41225L18.4752 7.54314L17.3262 6.57896L19.9533 3.44807L21.1024 4.41225ZM5.74431 7.54314L3.11719 4.41225L4.26625 3.44807L6.89338 6.57896L5.74431 7.54314ZM16.4455 19.9956L15.4584 10.7825C15.3495 9.76626 14.4919 8.9956 13.4698 8.9956L10.7598 8.99561C9.73774 8.99561 8.88011 9.76626 8.77122 10.7825L7.78411 19.9956H16.4455ZM17.9541 19.9956L16.9499 10.6227C16.7593 8.84425 15.2584 7.4956 13.4698 7.4956L10.7598 7.49561C8.97117 7.49561 7.47031 8.84425 7.27976 10.6227L6.27552 19.9956L5.11481 19.9956V21.4956L6.11481 21.4956L7.62339 21.4956H16.6062H18.1148H19.1148V19.9956H17.9541Z" fill="#D3D4DB"/>
</svg>
