<svg width="25" height="25" viewBox="0 0 25 25" fill="none" xmlns="http://www.w3.org/2000/svg">
<path fill-rule="evenodd" clip-rule="evenodd" d="M4.61328 11.7416V3.49561H3.11328V19.7469C3.11328 20.7134 3.89678 21.4969 4.86328 21.4969H21.1145V19.9969H4.86328C4.8548 19.9969 4.84642 19.9964 4.83815 19.9956H5.36444C5.36444 18.0181 5.51597 14.6421 6.13807 11.7809C6.45046 10.3442 6.86919 9.09751 7.4074 8.22789C7.94472 7.35971 8.51087 6.99756 9.11444 6.99756C9.5104 6.99756 9.79891 7.11632 10.0393 7.31707C10.2959 7.53132 10.531 7.86827 10.7446 8.34823C11.166 9.29526 11.4126 10.5736 11.685 11.9862L11.7139 12.1361C11.9865 13.5482 12.293 15.0919 12.8809 16.2777C13.1804 16.8817 13.5737 17.4387 14.1141 17.8456C14.6666 18.2617 15.3333 18.4903 16.1144 18.4903C18.1297 18.4903 19.3701 16.8637 20.088 14.6631C20.818 12.4255 21.1356 9.26949 21.1356 5.49561H19.6356C19.6356 9.22172 19.3176 12.1881 18.662 14.1979C17.9943 16.2446 17.0992 16.9903 16.1144 16.9903C15.6456 16.9903 15.2985 16.8598 15.0164 16.6473C14.722 16.4257 14.4596 16.0849 14.2248 15.6114C13.7444 14.6424 13.4688 13.3128 13.1867 11.8518L13.142 11.6196C12.8848 10.2826 12.609 8.8483 12.115 7.73837C11.8491 7.14089 11.4968 6.57997 11.0008 6.16571C10.4885 5.73795 9.85906 5.49756 9.11444 5.49756C7.77235 5.49756 6.80317 6.35391 6.13192 7.43849C5.46157 8.52163 4.99851 9.96199 4.67232 11.4622C4.65217 11.5549 4.63249 11.648 4.61328 11.7416Z" fill="#D3D4DB"/>
</svg>
