<svg width="25" height="25" viewBox="0 0 25 25" fill="none" xmlns="http://www.w3.org/2000/svg">
<path fill-rule="evenodd" clip-rule="evenodd" d="M4.61328 14.9362V3.49561H3.11328V19.7469C3.11328 20.7134 3.89678 21.4969 4.86328 21.4969H21.1145V19.9969H4.86328C4.72521 19.9969 4.61328 19.8849 4.61328 19.7469V17.0575L9.61451 12.0563L12.0842 14.5259C12.3771 14.8188 12.8519 14.8188 13.1448 14.5259L19.6145 8.05632V11.4956H21.1145V6.24561C21.1145 5.8314 20.7787 5.49561 20.3645 5.49561L15.1145 5.49561V6.99561L18.5539 6.99561L12.6145 12.935L10.1448 10.4653C9.85195 10.1724 9.37707 10.1724 9.08418 10.4653L4.61328 14.9362Z" fill="#D3D4DB"/>
</svg>
