<svg width="25" height="25" viewBox="0 0 25 25" fill="none" xmlns="http://www.w3.org/2000/svg">
<path fill-rule="evenodd" clip-rule="evenodd" d="M12.1152 20.9956C16.8097 20.9956 20.6152 17.19 20.6152 12.4956C20.6152 8.05391 17.2084 4.40793 12.8652 4.02824V12.0814C12.8652 12.5455 12.6809 12.9906 12.3527 13.3188L6.65846 19.013C8.13491 20.2505 10.0381 20.9956 12.1152 20.9956ZM6.17482 6.41601C7.53965 5.08223 9.35183 4.20426 11.3652 4.02824V10.8649L6.17482 6.41601ZM5.19813 7.55447C4.20168 8.94691 3.61523 10.6528 3.61523 12.4956C3.61523 14.5728 4.36032 16.4759 5.5978 17.9524L11.0122 12.538L5.19813 7.55447ZM12.1152 22.4956C17.6381 22.4956 22.1152 18.0185 22.1152 12.4956C22.1152 6.97276 17.6381 2.49561 12.1152 2.49561C6.59239 2.49561 2.11523 6.97276 2.11523 12.4956C2.11523 18.0185 6.59239 22.4956 12.1152 22.4956Z" fill="#D3D4DB"/>
</svg>
