<svg width="25" height="25" viewBox="0 0 25 25" fill="none" xmlns="http://www.w3.org/2000/svg">
<path fill-rule="evenodd" clip-rule="evenodd" d="M4.61328 3.49561V19.7469C4.61328 19.8849 4.72521 19.9969 4.86328 19.9969H7.11453V19.9956V10.4956C7.11453 9.94332 7.56225 9.49561 8.11453 9.49561H11.1145C11.6668 9.49561 12.1145 9.94332 12.1145 10.4956V19.9956V19.9969H14.1145V19.9956V6.49561C14.1145 5.94332 14.5622 5.49561 15.1145 5.49561H18.1145C18.6668 5.49561 19.1145 5.94332 19.1145 6.49561V19.9956V19.9969H21.1145V21.4969H4.86328C3.89678 21.4969 3.11328 20.7134 3.11328 19.7469V3.49561H4.61328ZM8.61453 10.9956V19.9956H10.6145V10.9956H8.61453ZM15.6145 19.9956V6.99561H17.6145V19.9956H15.6145Z" fill="#D3D4DB"/>
</svg>
