<svg width="25" height="25" viewBox="0 0 25 25" fill="none" xmlns="http://www.w3.org/2000/svg">
<path fill-rule="evenodd" clip-rule="evenodd" d="M8.11305 5.82745C8.31944 4.48591 9.47375 3.49561 10.8311 3.49561H13.3994C14.7567 3.49561 15.911 4.48591 16.1174 5.82745L16.2202 6.49556H17.6107H19.1152L19.1152 6.4956H20.1152V7.9956H18.9986L18.1638 18.7282C18.0423 20.2901 16.7395 21.4956 15.1728 21.4956H9.05763C7.491 21.4956 6.18814 20.2901 6.06666 18.7282L5.2319 7.99561H4.11523V6.49561H5.11524L5.11523 6.49556H6.61976H8.01026L8.11305 5.82745ZM14.7026 6.49556H9.52791L9.59561 6.05553C9.68942 5.44574 10.2141 4.99561 10.8311 4.99561H13.3994C14.0164 4.99561 14.541 5.44574 14.6349 6.05553L14.7026 6.49556ZM6.73643 7.99561L7.56214 18.6119C7.62289 19.3928 8.27431 19.9956 9.05763 19.9956H15.1728C15.9562 19.9956 16.6076 19.3928 16.6683 18.6119L17.494 7.9956L6.73643 7.99561Z" fill="#D3D4DB"/>
</svg>
