<svg width="25" height="25" viewBox="0 0 25 25" fill="none" xmlns="http://www.w3.org/2000/svg">
<path fill-rule="evenodd" clip-rule="evenodd" d="M8.11523 10.8957H9.71523V12.4957V14.8957H14.5152V12.4957V10.8957H16.1152H17.7525L12.1152 5.25844L6.47798 10.8957H8.11523ZM8.11523 15.4957V14.0957V12.4957H6.51523H5.02945C4.13854 12.4957 3.69238 11.4186 4.32234 10.7886L11.4081 3.70281C11.7987 3.31228 12.4318 3.31228 12.8223 3.70281L19.9081 10.7886C20.5381 11.4186 20.0919 12.4957 19.201 12.4957H17.7152H16.1152V14.0957V15.4957C16.1152 16.048 15.6675 16.4957 15.1152 16.4957H9.11523C8.56295 16.4957 8.11523 16.048 8.11523 15.4957ZM2.11523 19.4957V16.4957H3.61523V19.4957C3.61523 19.7718 3.83909 19.9957 4.11523 19.9957H20.1152C20.3914 19.9957 20.6152 19.7718 20.6152 19.4957V16.4957H22.1152V19.4957C22.1152 20.6003 21.2198 21.4957 20.1152 21.4957H4.11523C3.01067 21.4957 2.11523 20.6003 2.11523 19.4957Z" fill="#D3D4DB"/>
</svg>
