<svg width="25" height="25" viewBox="0 0 25 25" fill="none" xmlns="http://www.w3.org/2000/svg">
<path fill-rule="evenodd" clip-rule="evenodd" d="M9.61523 6.36669L4.25855 10.0937C3.85552 10.3741 3.61524 10.834 3.61524 11.3249L3.61523 13.4617C3.61523 13.9434 3.84653 14.3957 4.23699 14.6777L9.61523 18.5621L9.61523 6.36669ZM9.54411 4.58883L3.40186 8.86236C2.59581 9.42318 2.11523 10.343 2.11523 11.3249V13.4617C2.11523 14.425 2.57782 15.3297 3.35875 15.8937L9.52974 20.3506C10.1911 20.8282 11.1152 20.3557 11.1152 19.5399V16.3697C12.8405 15.9256 14.1152 14.3595 14.1152 12.4957C14.1152 10.6319 12.8405 9.06576 11.1152 8.62172V5.40969C11.1152 4.60197 10.2071 4.12752 9.54411 4.58883ZM12.6152 12.4957C12.6152 13.5209 11.9982 14.4019 11.1152 14.7877L11.1152 10.2037C11.9982 10.5895 12.6152 11.4705 12.6152 12.4957ZM15.1169 14.4337L17.0513 12.4993L15.1157 10.5558L16.1786 9.49729L18.112 11.4387L20.0545 9.49619L21.1151 10.5569L19.1704 12.5015L21.0958 14.4348L20.033 15.4933L18.1098 13.5622L16.1776 15.4943L15.1169 14.4337Z" fill="#D3D4DB"/>
</svg>
