<svg width="25" height="25" viewBox="0 0 25 25" fill="none" xmlns="http://www.w3.org/2000/svg">
<path fill-rule="evenodd" clip-rule="evenodd" d="M4.25855 10.0937L9.61523 6.36669L9.61523 18.5621L4.23699 14.6777C3.84653 14.3957 3.61523 13.9434 3.61523 13.4617L3.61524 11.3249C3.61524 10.834 3.85552 10.3741 4.25855 10.0937ZM3.40186 8.86236L9.54411 4.58883C10.2071 4.12752 11.1152 4.60197 11.1152 5.40969V8.62172C12.8405 9.06576 14.1152 10.6319 14.1152 12.4957C14.1152 14.3595 12.8405 15.9256 11.1152 16.3697V19.5399C11.1152 20.3557 10.1911 20.8282 9.52974 20.3506L3.35875 15.8937C2.57782 15.3297 2.11523 14.425 2.11523 13.4617V11.3249C2.11523 10.343 2.59581 9.42318 3.40186 8.86236ZM11.1152 14.7877C11.9982 14.4019 12.6152 13.5209 12.6152 12.4957C12.6152 11.4705 11.9982 10.5895 11.1152 10.2037L11.1152 14.7877ZM19.8196 8.69C19.2954 7.49087 18.529 6.413 17.5685 5.52399L18.5875 4.42319C19.6996 5.45258 20.587 6.70064 21.194 8.0891C21.8011 9.47757 22.1147 10.9765 22.1152 12.4919C22.1158 14.0072 21.8032 15.5064 21.1971 16.8953C20.591 18.2842 19.7045 19.5328 18.5931 20.563L17.5734 19.4629C18.5332 18.5732 19.2988 17.4948 19.8223 16.2953C20.3457 15.0958 20.6157 13.8011 20.6152 12.4924C20.6148 11.1837 20.3439 9.88914 19.8196 8.69ZM16.1416 14.7285C15.8365 15.4154 15.3938 16.0324 14.841 16.5416L15.8571 17.645C16.5607 16.997 17.1241 16.2117 17.5125 15.3375C17.9008 14.4633 18.1058 13.5187 18.1149 12.5622C18.124 11.6057 17.937 10.6574 17.5653 9.77602C17.1936 8.8946 16.6453 8.0987 15.9541 7.43746L14.9172 8.52137C15.4603 9.04091 15.8911 9.66626 16.1831 10.3588C16.4752 11.0514 16.6221 11.7964 16.615 12.548C16.6078 13.2995 16.4467 14.0416 16.1416 14.7285Z" fill="#D3D4DB"/>
</svg>
