<svg width="25" height="25" viewBox="0 0 25 25" fill="none" xmlns="http://www.w3.org/2000/svg">
<path fill-rule="evenodd" clip-rule="evenodd" d="M9.61523 6.36644L4.25855 10.0934C3.85552 10.3738 3.61524 10.8337 3.61524 11.3247L3.61523 13.4615C3.61523 13.9431 3.84653 14.3955 4.23699 14.6775L9.61523 18.5618L9.61523 6.36644ZM9.54411 4.58858L3.40186 8.86211C2.59581 9.42294 2.11523 10.3427 2.11523 11.3247V13.4615C2.11523 14.4248 2.57782 15.3295 3.35875 15.8935L9.52974 20.3504C10.1911 20.828 11.1152 20.3555 11.1152 19.5397V16.3694C12.8405 15.9254 14.1152 14.3593 14.1152 12.4955C14.1152 10.6316 12.8405 9.06552 11.1152 8.62148V5.40945C11.1152 4.60172 10.2071 4.12727 9.54411 4.58858ZM12.6152 12.4955C12.6152 13.5206 11.9982 14.4017 11.1152 14.7874L11.1152 10.2035C11.9982 10.5893 12.6152 11.4703 12.6152 12.4955ZM16.1416 14.7283C15.8365 15.4151 15.3938 16.0322 14.841 16.5413L15.8571 17.6447C16.5607 16.9967 17.1241 16.2114 17.5125 15.3372C17.9008 14.463 18.1058 13.5185 18.1149 12.562C18.124 11.6054 17.937 10.6572 17.5653 9.77577C17.1936 8.89435 16.6453 8.09846 15.9541 7.43722L14.9172 8.52112C15.4603 9.04067 15.8911 9.66602 16.1831 10.3586C16.4752 11.0511 16.6221 11.7962 16.615 12.5477C16.6078 13.2993 16.4467 14.0414 16.1416 14.7283Z" fill="#D3D4DB"/>
</svg>
